<svg width="21" height="11" viewBox="0 0 21 11" fill="none" xmlns="http://www.w3.org/2000/svg">
<path d="M0.938726 1.43185L9.90948 10.1765C10.067 10.3301 10.2784 10.416 10.4984 10.416C10.7185 10.416 10.9298 10.3301 11.0873 10.1765L20.0615 1.43185C20.135 1.3603 20.1934 1.27477 20.2332 1.18028C20.2731 1.0858 20.2937 0.984281 20.2937 0.881724C20.2937 0.779169 20.2731 0.677651 20.2332 0.583166C20.1934 0.488681 20.135 0.403143 20.0615 0.331599C19.9108 0.184412 19.7085 0.10201 19.4979 0.10201C19.2872 0.10201 19.0849 0.184412 18.9342 0.331599L10.4984 8.55479L2.06429 0.331599C1.91368 0.184916 1.71175 0.102834 1.50151 0.102834C1.29127 0.102834 1.08934 0.184916 0.938726 0.331599C0.865247 0.403143 0.806844 0.488681 0.766966 0.583166C0.727088 0.677651 0.706543 0.779169 0.706543 0.881724C0.706543 0.984281 0.727088 1.0858 0.766966 1.18028C0.806844 1.27477 0.865247 1.3603 0.938726 1.43185Z" fill="black"/>
</svg>
